<?xml version="1.0" encoding="UTF-8"?>
<svg id="Layer_3" data-name="Layer 3" xmlns="http://www.w3.org/2000/svg" width="952.03" height="952" xmlns:xlink="http://www.w3.org/1999/xlink" viewBox="0 0 952.03 952">
  <defs>
    <linearGradient id="linear-gradient" x1="104.36" y1="227.95" x2="104.36" y2="738.56" gradientUnits="userSpaceOnUse">
      <stop offset=".29" stop-color="#640d5f"/>
      <stop offset="1" stop-color="#f78d60"/>
    </linearGradient>
    <linearGradient id="linear-gradient-2" x1="433.63" y1="404.07" x2="662.1" y2="214.11" gradientUnits="userSpaceOnUse">
      <stop offset="0" stop-color="#640d5f"/>
      <stop offset=".49" stop-color="#f78d60" stop-opacity=".7"/>
      <stop offset=".54" stop-color="#e67e5f" stop-opacity=".73"/>
      <stop offset=".74" stop-color="#9f415f" stop-opacity=".88"/>
      <stop offset=".9" stop-color="#741b5f" stop-opacity=".97"/>
      <stop offset="1" stop-color="#640d5f"/>
    </linearGradient>
    <linearGradient id="linear-gradient-3" x1="707.75" y1="786.34" x2="898.9" y2="540.71" gradientUnits="userSpaceOnUse">
      <stop offset="0" stop-color="#640d5f"/>
      <stop offset=".36" stop-color="#ae4e5f"/>
      <stop offset=".69" stop-color="#f78d60"/>
    </linearGradient>
  </defs>
  <path d="m.03,832.68c26.85-20.23,104.33-76.01,104.33-76.01,0,0,78.39,57.44,104.33,76.01V120.13H.03v712.55Z" fill="url(#linear-gradient)" stroke-width="0"/>
  <g>
    <path d="m501.15,531.34c.74,1.05,3.12,5.02,3.86,6.08l184.98-279.07c-.8-1.1-1.59-2.18-2.39-3.28,0,0-17.32-24.77-34.71-47.07-12.05-15.45-20.93-25.38-30.73-34.48-6.89-6.4-15.86-13.4-27.01-19.87-37.85-21.99-78.15-14.62-104.64,10.72-1.68,1.61-3.28,3.3-4.85,5.05-1.22,1.5-2.43,3.03-3.58,4.61l-106.99,162.1c35.36,53.68,68,106.8,104.95,162.55,6.25,9.43,12.56,20.45,21.12,32.66Z" fill="url(#linear-gradient-2)" stroke-width="0"/>
    <path d="m878.7,163.76c-20.44-28.94-48.76-40.51-92.15-41.78l-7.29.05s-143.38-1.8-191.05,1.22c-51.19,3.24-77.33,15.87-101.9,45.35,1.37-1.5,2.77-2.91,4.19-4.23,26.49-25.34,66.8-32.71,104.64-10.72,11.15,6.48,20.12,13.47,27.01,19.87,9.8,9.11,18.68,19.03,30.73,34.48,17.39,22.3,34.71,47.07,34.71,47.07.8,1.1,1.6,2.18,2.39,3.28,17.96,24.65,35.59,47.71,53.98,71.72,21.65,28.27,44.53,56.76,66.17,85.04,47.29-53.98,94.59-107.96,141.88-161.93l-73.33-89.41Z" fill="#f78d60" stroke-width="0"/>
  </g>
  <g>
    <path d="m763.36,815.34c-33.1-2.46-67.31-18.99-96.9-52.17-14.9-16.7-37.46-45.08-51.83-65.82-2.72-3.92-4.75-6.67-7.08-9.76-15.48-20.57-56.11-79.88-71.29-101.73-10.28-14.78-24.14-37.38-36.9-57.33-.7-1.09-1.53-2.09-2.23-3.17-7.91-12.34-15.1-23.72-21.35-33.15-36.95-55.75-70.25-109.88-105.62-163.56-.14-.21-.9-1.4-1.04-1.61-43.95-66.72-86.8-132.47-133.6-206.89H.28c-.2,0-.31.21-.21.38l194.74,308.48,235.34,360.57c22.62,35.19,48.6,41.83,96.53,42.19,102.98.76,94.17.71,102.89.76,62.43.39,109.59.79,138.66-4.42,35.31-6.33,50.34-16.31,60.25-23.36-31.14,11.84-49.63,11.77-65.1,10.62Z" fill="#f78d60" stroke-width="0"/>
    <path d="m794.36,530.8l-179.73,166.54c14.37,20.74,36.93,49.12,51.83,65.82,29.59,33.18,63.8,49.72,96.9,52.17,15.47,1.15,33.97,1.23,65.1-10.62,31.68-22.46,111.45-108.06,111.45-108.06l-145.55-165.87Z" fill="url(#linear-gradient-3)" stroke-width="0"/>
  </g>
</svg>