<?xml version="1.0" encoding="UTF-8"?>
<svg xmlns="http://www.w3.org/2000/svg" width="952" height="952" xmlns:xlink="http://www.w3.org/1999/xlink" viewBox="0 0 952 952">
  <defs>
    <linearGradient id="linear-gradient" x1="215.24" y1="302.07" x2="215.24" y2="660.36" gradientUnits="userSpaceOnUse">
      <stop offset=".29" stop-color="#640d5f"/>
      <stop offset="1" stop-color="#f78d60"/>
    </linearGradient>
    <linearGradient id="linear-gradient-2" x1="446.28" y1="425.65" x2="606.59" y2="292.36" gradientUnits="userSpaceOnUse">
      <stop offset="0" stop-color="#640d5f"/>
      <stop offset=".49" stop-color="#f78d60" stop-opacity=".7"/>
      <stop offset=".54" stop-color="#e67e5f" stop-opacity=".73"/>
      <stop offset=".74" stop-color="#9f415f" stop-opacity=".88"/>
      <stop offset=".9" stop-color="#741b5f" stop-opacity=".97"/>
      <stop offset="1" stop-color="#640d5f"/>
    </linearGradient>
    <linearGradient id="linear-gradient-3" x1="638.62" y1="693.88" x2="772.75" y2="521.53" gradientUnits="userSpaceOnUse">
      <stop offset="0" stop-color="#640d5f"/>
      <stop offset=".36" stop-color="#ae4e5f"/>
      <stop offset=".69" stop-color="#f78d60"/>
    </linearGradient>
  </defs>
  <g id="Layer_2" data-name="Layer 2">
    <rect width="952" height="952" rx="220" ry="220" fill="#0d1164" stroke-width="0"/>
  </g>
  <g id="Layer_3" data-name="Layer 3">
    <path d="m142.03,726.4c18.84-14.19,73.21-53.33,73.21-53.33,0,0,55.01,40.3,73.21,53.33V226.42h-146.41v499.98Z" fill="url(#linear-gradient)" stroke-width="0"/>
    <g>
      <path d="m493.66,514.95c.52.74,2.19,3.52,2.71,4.27l129.8-195.82c-.56-.77-1.12-1.53-1.68-2.3,0,0-12.16-17.38-24.36-33.03-8.46-10.84-14.69-17.81-21.56-24.2-4.83-4.49-11.13-9.4-18.95-13.94-26.56-15.43-54.84-10.26-73.43,7.52-1.18,1.13-2.3,2.32-3.41,3.54-.86,1.05-1.7,2.12-2.51,3.23l-75.07,113.75c24.81,37.67,47.71,74.94,73.64,114.06,4.39,6.62,8.82,14.35,14.82,22.92Z" fill="url(#linear-gradient-2)" stroke-width="0"/>
      <path d="m758.57,257.03c-14.34-20.31-34.21-28.43-64.66-29.32l-5.11.03s-100.61-1.26-134.06.86c-35.92,2.28-54.26,11.14-71.5,31.82.96-1.05,1.94-2.04,2.94-2.97,18.59-17.78,46.87-22.95,73.43-7.52,7.82,4.54,14.12,9.45,18.95,13.94,6.88,6.39,13.11,13.35,21.56,24.2,12.2,15.65,24.36,33.03,24.36,33.03.56.77,1.12,1.53,1.68,2.3,12.6,17.3,24.97,33.48,37.87,50.32,15.19,19.84,31.24,39.83,46.43,59.67,33.18-37.88,66.37-75.75,99.55-113.63l-51.45-62.74Z" fill="#f78d60" stroke-width="0"/>
    </g>
    <g>
      <path d="m677.65,714.23c-23.23-1.72-47.23-13.33-67.99-36.61-10.45-11.72-26.29-31.63-36.37-46.19-1.91-2.75-3.33-4.68-4.97-6.85-10.86-14.43-39.37-56.05-50.02-71.38-7.21-10.37-16.94-26.23-25.89-40.22-.49-.77-1.08-1.47-1.56-2.23-5.55-8.66-10.59-16.65-14.98-23.26-25.93-39.12-49.3-77.1-74.11-114.77-.1-.15-.63-.98-.73-1.13-30.84-46.81-60.91-92.95-93.74-145.17h-165.07c-.14,0-.22.15-.15.27l136.65,216.45,165.13,253c15.87,24.69,34.1,29.35,67.73,29.6,72.26.53,66.08.5,72.19.53,43.81.27,76.9.55,97.29-3.1,24.78-4.44,35.33-11.44,42.28-16.39-21.85,8.31-34.82,8.26-45.68,7.45Z" fill="#f78d60" stroke-width="0"/>
      <path d="m699.4,514.58l-126.11,116.86c10.08,14.55,25.92,34.46,36.37,46.19,20.76,23.28,44.77,34.89,67.99,36.61,10.86.81,23.83.86,45.68-7.45,22.23-15.76,78.2-75.82,78.2-75.82l-102.13-116.38Z" fill="url(#linear-gradient-3)" stroke-width="0"/>
    </g>
  </g>
</svg>